<svg xmlns="http://www.w3.org/2000/svg" version="1.1" xmlns:xlink="http://www.w3.org/1999/xlink" xmlns:svgjs="http://svgjs.dev/svgjs" width="100%" height="100%" viewBox="0 0 1000 600"><rect width="1000" height="600" x="0" y="0" fill="#7ccbfc"/><g><circle r="166.66666666666666" cx="340.8703409830729" cy="363.092582490269" fill="#3c1a5b" transform="matrix(0.7175507135156587,0,0,0.7175507135156587,0,39.46265355689336)"/><path d="M283.6430715453123 315.78952754642535L267.88549578773655 372.9107396676375L301.7642836665244 372.9107396676375L286.00670790894867 315.78952754642535L283.6430715453123 315.78952754642535ZM312.6430715453123 308.12286087975866L334.7945866968274 383.33498209187985Q335.00670790894867 390.5774063343041 335.34004124228204 398.1531639100617Q335.6430715453123 405.6986184555162 335.6430715453123 412.7289214858192L335.6430715453123 412.7289214858192L335.6430715453123 415.9410426979405Q335.6430715453123 419.9713457282435 335.37034427258504 423.75922451612223Q335.1279200301608 427.5471033040011 333.7339806362214 430.5774063343041Q332.34004124228204 433.6077093646071 329.37034427258504 435.425891182789Q326.37034427258504 437.24407300097073 320.94610184834255 437.24407300097073L320.94610184834255 437.24407300097073Q315.40064730288805 437.24407300097073 312.43095033319105 435.425891182789Q309.43095033319105 433.6077093646071 308.00670790894867 430.6380123949102Q306.5521624544032 427.6683154252132 306.3097382119789 423.81983057672835Q306.0370109392517 419.9713457282435 306.0370109392517 415.9410426979405L306.0370109392517 415.9410426979405L306.0370109392517 401.0319517888496L263.43095033319105 401.0319517888496L263.43095033319105 415.9410426979405Q263.43095033319105 419.9713457282435 263.1582230604638 423.81983057672835Q262.88549578773655 427.6683154252132 261.43095033319105 430.6380123949102Q260.00670790894867 433.6077093646071 257.0370109392517 435.425891182789Q254.03701093925167 437.24407300097073 248.49155639379714 437.24407300097073L248.49155639379714 437.24407300097073Q242.9764048786456 437.24407300097073 239.9764048786456 435.425891182789Q237.00670790894864 433.6077093646071 235.61276851500926 430.5774063343041Q234.21882912106986 427.5471033040011 234.00670790894864 423.75922451612223Q233.79458669682745 419.9713457282435 233.79458669682745 415.9410426979405L233.79458669682745 415.9410426979405L233.79458669682745 412.7289214858192Q233.79458669682745 409.425891182789 233.8551927574335 405.6986184555162Q233.91579881803955 401.9713457282435 234.00670790894864 398.1531639100617Q234.12792003016077 394.30467906157685 234.21882912106986 390.5168002736981Q234.34004124228198 386.75922451612234 234.43095033319108 383.33498209187985L234.43095033319108 383.33498209187985Q239.76428366652442 364.78952754642535 245.61276851500926 345.78952754642535Q251.49155639379714 326.75922451612234 256.8248897271304 308.12286087975866L256.8248897271304 308.12286087975866Q257.88549578773655 304.1834669403647 259.37034427258504 300.5168002736981Q260.85519275743354 296.81983057672835 263.3097382119789 294.1228608797587Q265.7642836665244 291.39558815248597 269.5824654847063 289.7592245161223Q273.43095033319105 288.0925578494556 279.40064730288805 288.0925578494556L279.40064730288805 288.0925578494556L290.0370109392517 288.0925578494556Q295.91579881803955 288.0925578494556 299.7945866968274 289.7592245161223Q303.6733745756153 291.39558815248597 306.1279200301608 294.1228608797587Q308.5824654847063 296.81983057672835 310.0370109392517 300.5168002736981Q311.46125336349417 304.1834669403647 312.6430715453123 308.12286087975866L312.6430715453123 308.12286087975866ZM400.6430715453123 438.0925578494556L400.6430715453123 438.0925578494556Q388.91579881803955 438.0925578494556 380.43095033319105 435.425891182789Q371.97640487864567 432.75922451612234 366.1582230604638 428.5168002736981Q360.37034427258504 424.24407300097073 356.85519275743354 418.88043663733436Q353.34004124228204 413.486497243395 351.46125336349417 407.9410426979405Q349.6127685150093 402.39558815248597 349.00670790894867 397.30467906157685Q348.43095033319105 392.1834669403647 348.43095033319105 388.456194213092L348.43095033319105 388.456194213092Q348.43095033319105 386.85013360703135 348.7036776059184 384.5774063343041Q348.97640487864567 382.27437603127385 350.5521624544032 380.1531639100617Q352.1582230604638 378.0016487585465 355.6127685150093 376.5168002736981Q359.0976169998578 375.0319517888496 365.46125336349417 375.0319517888496L365.46125336349417 375.0319517888496Q367.6127685150093 375.0319517888496 370.7945866968274 375.30467906157685Q374.00670790894867 375.5471033040011 376.97640487864567 376.6683154252132Q379.97640487864567 377.78952754642535 382.0976169998578 379.9410426979405Q384.2188291210699 382.0622548191526 384.2188291210699 385.6683154252132L384.2188291210699 385.6683154252132Q384.2188291210699 391.425891182789 384.91579881803955 396.0016487585465Q385.6127685150093 400.6077093646071 387.43095033319105 403.78952754642535Q389.2188291210699 407.0016487585465 392.43095033319105 408.6986184555162Q395.6127685150093 410.39558815248597 400.6430715453123 410.39558815248597L400.6430715453123 410.39558815248597Q405.85519275743354 410.39558815248597 408.6733745756153 408.27437603127385Q411.49155639379717 406.1228608797587 412.7642836665244 403.486497243395L412.7642836665244 403.486497243395Q414.2794351816759 400.486497243395 414.49155639379717 396.5471033040011L414.49155639379717 396.5471033040011L414.49155639379717 318.36528512218297L386.5824654847063 318.36528512218297Q382.3097382119789 318.36528512218297 378.0370109392517 317.9107396676375Q373.7945866968274 317.486497243395 370.3097382119789 316.0016487585466Q366.85519275743354 314.5168002736981 364.6733745756153 311.5471033040011Q362.49155639379717 308.5471033040011 362.49155639379717 303.425891182789L362.49155639379717 303.425891182789Q362.49155639379717 298.2137699706677 364.6733745756153 295.12286087975866Q366.85519275743354 292.0319517888496 370.3097382119789 290.48649724339504Q373.7945866968274 288.9410426979405 378.0370109392517 288.5168002736981Q382.3097382119789 288.0925578494556 386.5824654847063 288.0925578494556L386.5824654847063 288.0925578494556L430.0370109392517 288.0925578494556Q436.0976169998578 288.0925578494556 439.6733745756154 290.2137699706677Q443.2491321513729 292.36528512218285 445.0673139695547 295.81983057672835Q446.85519275743354 299.27437603127385 447.40064730288805 303.63801239491016Q447.94610184834266 308.0319517888496 447.94610184834266 312.6077093646071L447.94610184834266 312.6077093646071L447.94610184834266 393.5774063343041Q447.94610184834266 404.6380123949102 444.7339806362214 412.30467906157685Q441.5521624544032 419.9713457282435 436.7036776059184 424.9410426979405Q431.85519275743354 429.88043663733436 426.0370109392517 432.5471033040011Q420.2491321513729 435.2137699706677 414.94610184834266 436.456194213092Q409.6733745756153 437.6683154252132 405.7339806362214 437.88043663733436Q401.7945866968274 438.0925578494556 400.6430715453123 438.0925578494556Z " fill="white" transform="matrix(0.7175507135156587,0,0,0.7175507135156587,0,39.46265355689336)"/><path d="M590.8703392329988 371.23446932159686L590.8703392329988 321.7693980177885Q590.8703392329988 313.7218840318159 593.183114513425 308.08154431730713Q595.5194895416106 302.4412046027985 599.1302509488065 298.66524496128636Q602.7410123560024 294.88928531977433 607.0833659437413 292.7889077691832Q611.4493192792397 290.66493047083264 615.5556753893841 289.62654156941676Q619.6620314995286 288.588152668001 622.9659961858516 288.3521551904065Q626.293560619934 288.0925579650525 627.8747437198173 288.0925579650525L627.8747437198173 288.0925579650525L630.6831137031919 288.0925579650525Q632.2642968030751 288.0925579650525 635.5446617416387 288.3521551904065Q638.8250266802023 288.588152668001 642.9313827903468 289.62654156941676Q647.0377389004911 290.66493047083264 651.3564927404706 292.7889077691832Q655.6752465804501 294.88928531977433 659.2388084921271 298.66524496128636Q662.8023704038042 302.4412046027985 665.0915459364709 308.08154431730713Q667.3571217213781 313.7218840318159 667.3571217213781 321.7693980177885L667.3571217213781 321.7693980177885L667.3571217213781 371.23446932159686Q667.3571217213781 377.44120298233236 665.9175371080516 382.3499505162981Q664.4543527469656 387.2350983025044 662.0471784755017 391.1290566828137L662.0471784755017 391.1290566828137L670.3542896868283 398.6101767225596Q671.5106773270414 399.76656436277267 672.3366684986221 401.0645504895424Q673.162659670203 402.33893686855276 673.162659670203 405.2417058429652L673.162659670203 405.2417058429652Q673.162659670203 406.4924924742161 672.5962657239762 408.19167431289645Q672.0062720299899 409.89085615157694 670.3542896868283 411.5428384947385L670.3542896868283 411.5428384947385Q668.7023073436668 413.05322235134327 667.0739247482646 413.5488170542917Q665.4455421528627 414.04441175724025 664.053157035055 414.04441175724025L664.053157035055 414.04441175724025Q661.1503880606425 414.04441175724025 659.6400042040378 413.24202033341885Q658.1532200951923 412.46322865735704 657.2328299325737 411.5428384947385L657.2328299325737 411.5428384947385L647.9581290631097 402.7637323282229Q644.7957628633434 403.8257209773981 642.105391618766 404.4157146713844Q639.4150203741887 405.00570836537065 637.1966440848003 405.2417058429652Q635.0018675431714 405.5013030683191 633.3498852000099 405.52490281607857Q631.6979028568484 405.5721023115975 630.6831137031919 405.5721023115975L630.6831137031919 405.5721023115975L627.8747437198173 405.5721023115975Q626.293560619934 405.5721023115975 622.9659961858516 405.336104834003Q619.6620314995286 405.07650760864897 615.5556753893841 403.9909192117143Q611.4493192792397 402.928930562539 607.0833659437413 400.7105542731506Q602.7410123560024 398.5157777315218 599.1302509488065 394.71621834225016Q595.5194895416106 390.8930592052192 593.183114513425 385.15832049967275Q590.8703392329988 379.4471815418857 590.8703392329988 371.23446932159686L590.8703392329988 371.23446932159686ZM618.4112448682775 320.28261390894306L618.4112448682775 374.3732357736038Q618.5764431025938 377.44120298233236 619.8272297338447 379.777578010518L619.8272297338447 379.777578010518Q620.9128181307793 381.8543558133497 623.1075946724083 383.5063381565112Q625.3023712140372 385.15832049967275 629.3615278286627 385.15832049967275L629.3615278286627 385.15832049967275Q633.3498852000099 385.15832049967275 635.4974622461199 383.5063381565112Q637.6686390399892 381.8543558133497 638.7306276891646 379.777578010518L638.7306276891646 379.777578010518Q639.9106150771371 377.44120298233236 640.1466125547316 374.3732357736038L640.1466125547316 374.3732357736038L640.1466125547316 320.28261390894306Q639.9106150771371 317.28544594349285 638.7306276891646 314.97267066306676L638.7306276891646 314.97267066306676Q637.6686390399892 312.9902918512729 635.4974622461199 311.3147097603519Q633.3498852000099 309.66272741719035 629.3615278286627 309.66272741719035L629.3615278286627 309.66272741719035Q625.3023712140372 309.66272741719035 623.1075946724083 311.3147097603519Q620.9128181307793 312.9902918512729 619.8272297338447 314.97267066306676L619.8272297338447 314.97267066306676Q618.5764431025938 317.28544594349285 618.4112448682775 320.28261390894306L618.4112448682775 320.28261390894306ZM686.4493176587737 375.3644251795007L686.4493176587737 340.86159395518405Q686.4493176587737 337.29803204350696 686.8505133706842 333.8996683661461Q687.2753088303543 330.47770494102576 688.6440942004026 327.83453319196724Q690.0128795704507 325.16776169514935 692.5380525807118 323.56297884750677Q695.0868253387325 321.9345962521046 699.3819794309525 321.9345962521046L699.3819794309525 321.9345962521046Q703.6299340276537 321.9345962521046 706.1079075423959 323.56297884750677Q708.6094808048977 325.16776169514935 709.931066679427 327.83453319196724Q711.2526525539561 330.47770494102576 711.6302485181075 333.8996683661461Q712.0078444822586 337.29803204350696 712.0078444822586 340.86159395518405L712.0078444822586 340.86159395518405L712.0078444822586 373.2168481333907Q712.0078444822586 375.6240224048547 712.2202422120936 377.8187989464835Q712.4090401941692 380.01357548811245 713.1642321224717 381.71275732679294Q713.9194240507741 383.4119391654734 715.3590086641007 384.45032806688926Q716.8221930251866 385.48871696830497 719.3001665399288 385.48871696830497L719.3001665399288 385.48871696830497Q722.6277309740112 385.48871696830497 724.7281085246025 383.2467409311572Q726.8520858229531 381.00476489400944 728.0556729586849 377.1108065137Q729.259260094417 373.2168481333907 729.6840555540871 367.95410438303327Q730.0852512659978 362.6913606326758 730.0852512659978 356.62622545849695L730.0852512659978 356.62622545849695L730.0852512659978 340.86159395518405Q730.0852512659978 337.29803204350696 730.510046725668 333.8996683661461Q730.9112424375785 330.47770494102576 732.2800278076265 327.83453319196724Q733.6488131776748 325.16776169514935 736.1975859356955 323.56297884750677Q738.7227589459567 321.9345962521046 743.041512785936 321.9345962521046L743.041512785936 321.9345962521046Q747.2658676348778 321.9345962521046 749.74384114962 323.56297884750677Q752.2454144121218 325.16776169514935 753.5670002866511 327.83453319196724Q754.8885861611802 330.47770494102576 755.2661821253314 333.8996683661461Q755.6437780894828 337.29803204350696 755.6437780894828 340.86159395518405L755.6437780894828 340.86159395518405L755.6437780894828 386.14950990556963Q755.6437780894828 389.7366715650061 755.3841808641287 393.0878357468481Q755.1481833865344 396.4389999286901 753.8973967552834 399.05857192998917Q752.6466101240326 401.6781439312881 750.1214371137712 403.2829267789308Q747.5962641035101 404.91130937433286 743.041512785936 404.91130937433286L743.041512785936 404.91130937433286Q738.4631617206028 404.91130937433286 735.8907892148225 403.3773257699686Q733.3184167090424 401.8433421656043 732.0440303300322 399.69576511949424Q730.7460442032623 397.5245883256248 730.41564773463 395.1174140541609Q730.0852512659978 392.71023978269693 730.0852512659978 390.9638584484976L730.0852512659978 390.9638584484976Q729.4244583287332 393.3710327199615 728.0084734631662 395.87260598246326Q726.592488597599 398.35057949720556 724.3977120559703 400.3565580567589Q722.2029355143413 402.33893686855276 719.1349683056126 403.6369229953225Q716.067001096884 404.91130937433286 712.0078444822586 404.91130937433286L712.0078444822586 404.91130937433286Q707.4294934169252 404.91130937433286 702.8747420993511 403.42452526548743Q698.3199907817773 401.91414140888264 694.6620298790624 398.44497848824335Q691.0040689763475 394.9522158198447 688.7384931914403 389.31187610533607Q686.4493176587737 383.6715363908273 686.4493176587737 375.3644251795007L686.4493176587737 375.3644251795007ZM778.700731650466 386.31470813988585L778.700731650466 340.5311974865517Q778.700731650466 337.03843481815295 779.0783276146171 333.7344701318299Q779.4559235787683 330.40690569774745 780.7775094532976 327.7873336964484Q782.0990953278267 325.16776169514935 784.6006685903285 323.56297884750677Q787.0786421050709 321.9345962521046 791.3265967017719 321.9345962521046L791.3265967017719 321.9345962521046Q795.5509515507135 321.9345962521046 798.028925065456 323.56297884750677Q800.5304983279577 325.16776169514935 801.8520842024868 327.7873336964484Q803.1736700770161 330.40690569774745 803.5512660411673 333.7344701318299Q803.9288620053185 337.03843481815295 803.9288620053185 340.5311974865517L803.9288620053185 340.5311974865517L803.9288620053185 386.31470813988585Q803.9288620053185 389.8074708082845 803.5512660411673 393.1822347378859Q803.1736700770161 396.5333989197279 801.8520842024868 399.15297092102696Q800.5304983279577 401.7489431745664 798.028925065456 403.33012627444964Q795.5509515507135 404.91130937433286 791.3265967017719 404.91130937433286L791.3265967017719 404.91130937433286Q787.0786421050709 404.91130937433286 784.6006685903285 403.33012627444964Q782.0990953278267 401.7489431745664 780.7775094532976 399.15297092102696Q779.4559235787683 396.5333989197279 779.0783276146171 393.1822347378859Q778.700731650466 389.8074708082845 778.700731650466 386.31470813988585L778.700731650466 386.31470813988585ZM804.0940602396347 301.3556162058637L804.0940602396347 301.3556162058637Q804.0940602396347 307.7511478486748 800.7664958055523 310.8663145529223Q797.4625311192292 313.9814812571698 791.4917949360881 313.9814812571698L791.4917949360881 313.9814812571698Q785.521058752947 313.9814812571698 782.1934943188646 310.8663145529223Q778.865929884782 307.7511478486748 778.865929884782 301.3556162058637L778.865929884782 301.3556162058637Q778.865929884782 294.7240870854581 782.1934943188646 291.75051886776737Q785.521058752947 288.75335090231715 791.4917949360881 288.75335090231715L791.4917949360881 288.75335090231715Q797.8637268311397 288.75335090231715 800.9788935353872 291.75051886776737Q804.0940602396347 294.7240870854581 804.0940602396347 301.3556162058637ZM839.2812841489756 321.9345962521046L872.1321330301307 321.9345962521046Q874.4449083105569 321.9345962521046 877.1824790506532 322.3593917117747Q879.9200497907493 322.78418717144484 882.2092253234161 323.8933753161391Q884.4984008560828 325.00256346083324 886.032384460447 327.0557415159054Q887.5663680648113 329.08531982321813 887.5663680648113 332.2240862752251L887.5663680648113 332.2240862752251Q887.5663680648113 333.6400711407921 887.0943731096224 335.0560560063592Q886.645977902193 336.4720408719262 885.9851849649283 337.91162548525267Q885.3243920276636 339.3748098463386 884.5220006038423 340.76719496414614Q883.7432089277804 342.18317982971325 883.0824159905158 343.50476570424246L883.0824159905158 343.50476570424246L854.2199244807077 383.83673462514344L872.4625294987629 383.83673462514344Q875.3652984731755 383.83673462514344 878.1500687087907 384.1199315982569Q880.9348389444058 384.4267283191298 883.0824159905158 385.48871696830497Q885.2299930366257 386.57430536523975 886.5751786589144 388.6510831680714Q887.8967645334437 390.72786097090307 887.8967645334437 394.29142288258004L887.8967645334437 394.29142288258004Q887.8967645334437 397.7841855509788 886.5751786589144 399.8845631015698Q885.2299930366257 402.00854039992043 883.0824159905158 403.1177285446146Q880.9348389444058 404.2505164370682 878.1500687087907 404.58091290570053Q875.3652984731755 404.91130937433286 872.4625294987629 404.91130937433286L872.4625294987629 404.91130937433286L839.776878851924 404.91130937433286Q837.2753055894223 404.91130937433286 834.537734849326 404.58091290570053Q831.8001641092296 404.2505164370682 829.4873888288037 403.16492804013353Q827.1510138006179 402.07933964319875 825.6642296917726 400.0969608314049Q824.1774455829272 398.11458201961113 824.1774455829272 394.7870175855286L824.1774455829272 394.7870175855286Q824.1774455829272 391.81344936783773 825.6170301962536 388.8162814023875Q827.0802145573396 385.8191134369373 828.826595891539 383.341139922195L828.826595891539 383.341139922195L857.5238891670308 342.8439727669778L839.2812841489756 342.8439727669778Q836.3785151745631 342.8439727669778 833.6409444344667 342.5607757938644Q830.9033736943707 342.27757882075105 828.6849974049821 341.19199042381626Q826.4902208633532 340.1064020268816 825.1686349888241 338.0768237195688Q823.8470491142948 336.0472454122561 823.8470491142948 332.5544827438574L823.8470491142948 332.5544827438574Q823.8470491142948 328.99092083218034 825.1686349888241 326.9141430293487Q826.4902208633532 324.837365226517 828.6849974049821 323.7281770818229Q830.9033736943707 322.59538918936926 833.6409444344667 322.2649927207369Q836.3785151745631 321.9345962521046 839.2812841489756 321.9345962521046L839.2812841489756 321.9345962521046ZM1005.0459124113563 310.32352035445496L992.774043576442 354.8090448810193L1019.1585615715078 354.8090448810193L1006.8630929888341 310.32352035445496L1005.0459124113563 310.32352035445496ZM1027.6072712693913 304.35278417131394L1044.8586868815496 362.92735811027023Q1045.0238851158656 368.567697824779 1045.2834823412195 374.4676347646416Q1045.5430795665739 380.3439719567448 1045.5430795665739 385.8191134369373L1045.5430795665739 385.8191134369373L1045.5430795665739 388.3206866994391Q1045.5430795665739 391.45945315144604 1045.3306818367387 394.4094216213773Q1045.1182841069035 397.3593900913087 1044.0326957099687 399.7193648672537Q1042.9707070607938 402.07933964319875 1040.6343320326077 403.49532450876586Q1038.3215567521816 404.91130937433286 1034.0736021554808 404.91130937433286L1034.0736021554808 404.91130937433286Q1029.7784480632608 404.91130937433286 1027.4420730350753 403.49532450876586Q1025.129297754649 402.07933964319875 1023.9965098621951 399.76656436277267Q1022.887321717501 397.4537890823465 1022.6749239876658 394.45662111689626Q1022.4625262578309 391.45945315144604 1022.4625262578309 388.3206866994391L1022.4625262578309 388.3206866994391L1022.4625262578309 376.7096108017894L989.2812809080433 376.7096108017894L989.2812809080433 388.3206866994391Q989.2812809080433 391.45945315144604 989.0688831782084 394.45662111689626Q988.8564854483732 397.4537890823465 987.747297303679 399.76656436277267Q986.6145094112255 402.07933964319875 984.3017341307993 403.49532450876586Q981.9889588503731 404.91130937433286 977.6702050103936 404.91130937433286L977.6702050103936 404.91130937433286Q973.3514511704143 404.91130937433286 971.0386758899881 403.49532450876586Q968.7023008618025 402.07933964319875 967.6167124648678 399.7193648672537Q966.5547238156923 397.3593900913087 966.3895255813763 394.4094216213773Q966.2243273470601 391.45945315144604 966.2243273470601 388.3206866994391L966.2243273470601 388.3206866994391L966.2243273470601 385.8191134369373Q966.2243273470601 383.2467409311572 966.2479270948195 380.3439719567448Q966.2951265903384 377.44120298233236 966.3895255813763 374.4676347646416Q966.4603248246547 371.4704667991914 966.5547238156923 368.52049832926Q966.6255230589709 365.59412960708823 966.7199220500086 362.92735811027023L966.7199220500086 362.92735811027023Q970.8498779079125 348.48431248148654 975.428228973246 333.68727063631104Q979.9829802908198 318.86662904337607 984.1365358964831 304.35278417131394L984.1365358964831 304.35278417131394Q984.962527068064 301.2848169625854 986.1189147082771 298.4292474836919Q987.2989020962495 295.5500782570389 989.1868819170056 293.4497007064478Q991.098461485521 291.32572340809725 994.0956294509713 290.0513370290869Q997.0691976686621 288.75335090231715 1001.7183479772739 288.75335090231715L1001.7183479772739 288.75335090231715L1010.0254591886005 288.75335090231715Q1014.5802105061744 288.75335090231715 1017.6245779671435 290.0513370290869Q1020.6453456803531 291.32572340809725 1022.5569252488688 293.4497007064478Q1024.4685048173842 295.5500782570389 1025.5776929620783 298.4292474836919Q1026.6868811067725 301.2848169625854 1027.6072712693913 304.35278417131394L1027.6072712693913 304.35278417131394ZM1062.6292969444157 419.18915676880044L1062.6292969444157 340.6963957208678Q1062.6292969444157 337.2036330524692 1062.8652944220103 333.85246887062715Q1063.1248916473642 330.47770494102576 1064.3756782786154 327.83453319196724Q1065.6028651621064 325.16776169514935 1068.1044384246084 323.56297884750677Q1070.5824119393505 321.9345962521046 1075.0663640136463 321.9345962521046L1075.0663640136463 321.9345962521046Q1079.6211153312202 321.9345962521046 1082.1934878370002 323.468579856469Q1084.7658603427803 325.00256346083324 1086.0166469740316 327.22093975022153Q1087.2674336052823 329.41571629185046 1087.5506305783956 331.82289056331444Q1087.8574272992687 334.23006483477843 1087.8574272992687 335.88204717793997L1087.8574272992687 335.88204717793997Q1088.5890194798112 333.474872906476 1089.9578048498597 330.9968993917337Q1091.3265902199078 328.4953261292319 1093.4977670137773 326.51294731743803Q1095.645344059887 324.5069687578848 1098.6661117730969 323.23258237887444Q1101.710479234066 321.9345962521046 1105.7696358486915 321.9345962521046L1105.7696358486915 321.9345962521046Q1110.3243871662653 321.9345962521046 1114.902738231599 323.4449801087095Q1119.4574895491728 324.9317642175548 1123.1154504518877 328.4245268859536Q1126.7498116068432 331.89368980659276 1129.0389871395096 337.510429773342Q1131.3281626721764 343.1035699923318 1131.3281626721764 351.31628221262065L1131.3281626721764 351.31628221262065L1131.3281626721764 375.3644251795007Q1131.3281626721764 383.6715363908273 1129.0389871395096 389.2646766098171Q1126.7498116068432 394.8814165765664 1123.1154504518877 398.3269797494462Q1119.4574895491728 401.7489431745664 1114.902738231599 403.2593270311713Q1110.3243871662653 404.74611114001675 1105.7696358486915 404.74611114001675L1105.7696358486915 404.74611114001675Q1101.710479234066 404.74611114001675 1098.6661117730969 403.49532450876586Q1095.645344059887 402.244537877515 1093.4977670137773 400.2621590657211Q1091.3265902199078 398.27978025392724 1089.9578048498597 395.77820699142546Q1088.5890194798112 393.30023347668316 1087.8574272992687 390.7986602141814L1087.8574272992687 390.7986602141814L1087.8574272992687 419.18915676880044Q1087.8574272992687 422.82351792375584 1087.4798313351175 426.2454813488762Q1087.102235370966 429.64384502623705 1085.8042492441964 432.2398172797766Q1084.5298628651858 434.85938928107566 1081.9574903594057 436.4877718764777Q1079.3851178536256 438.0925547241203 1075.0663640136463 438.0925547241203L1075.0663640136463 438.0925547241203Q1070.912808407983 438.0925547241203 1068.4348348932408 436.4877718764777Q1065.9332616307388 434.85938928107566 1064.6588752517287 432.2398172797766Q1063.3608891249587 429.64384502623705 1063.006892908567 426.2454813488762Q1062.6292969444157 422.82351792375584 1062.6292969444157 419.18915676880044L1062.6292969444157 419.18915676880044ZM1105.7696358486915 373.54724460202306L1105.7696358486915 353.4638592587306Q1105.7696358486915 351.22188322158286 1105.6044376143755 349.07430617547277Q1105.439239380059 346.9267291293628 1104.6840474517567 345.18034779516347Q1103.9524552712137 343.43396646096414 1102.4892709101277 342.3955775595483Q1101.0260865490418 341.3571886581325 1098.477313791021 341.3571886581325L1098.477313791021 341.3571886581325Q1095.2205486002172 341.3571886581325 1093.1909702929042 342.82037301921844Q1091.1613919855918 344.2599576325449 1090.0050043453784 347.2807253457546Q1088.8486167051656 350.32509280672366 1088.3766217499765 354.9742431153354Q1087.9282265425468 359.5997936761878 1087.8574272992687 365.92452607572056L1087.8574272992687 365.92452607572056Q1087.8574272992687 368.567697824779 1088.305822506698 371.94246175438036Q1088.7542177141277 375.2936259362224 1089.9106053543405 378.2671941539131Q1091.0905927423132 381.26436211936334 1093.1673705451449 383.29394042667616Q1095.2205486002172 385.32351873398886 1098.477313791021 385.32351873398886L1098.477313791021 385.32351873398886Q1101.0260865490418 385.32351873398886 1102.4892709101277 384.28512983257303Q1103.9524552712137 383.2467409311572 1104.6840474517567 381.59475858799567Q1105.439239380059 379.94277624483414 1105.6044376143755 377.8187989464835Q1105.7696358486915 375.69482164813303 1105.7696358486915 373.54724460202306L1105.7696358486915 373.54724460202306ZM1150.727155330445 419.18915676880044L1150.727155330445 340.6963957208678Q1150.727155330445 337.2036330524692 1150.9867525557988 333.85246887062715Q1151.2227500333934 330.47770494102576 1152.4735366646441 327.83453319196724Q1153.724323295895 325.16776169514935 1156.2022968106376 323.56297884750677Q1158.7038700731391 321.9345962521046 1163.1878221474349 321.9345962521046L1163.1878221474349 321.9345962521046Q1167.7425734650087 321.9345962521046 1170.3149459707888 323.468579856469Q1172.887318476569 325.00256346083324 1174.1381051078197 327.22093975022153Q1175.365291991311 329.41571629185046 1175.6720887121842 331.82289056331444Q1175.9552856852974 334.23006483477843 1175.9552856852974 335.88204717793997L1175.9552856852974 335.88204717793997Q1176.7104776135998 333.474872906476 1178.0792629836483 330.9968993917337Q1179.4480483536963 328.4953261292319 1181.595625399806 326.51294731743803Q1183.7668021936756 324.5069687578848 1186.7875699068854 323.23258237887444Q1189.8083376200948 321.9345962521046 1193.8674942347207 321.9345962521046L1193.8674942347207 321.9345962521046Q1198.4458453000539 321.9345962521046 1203.0005966176282 323.4449801087095Q1207.5789476829614 324.9317642175548 1211.2133088379169 328.4245268859536Q1214.8712697406313 331.89368980659276 1217.1604452732981 337.510429773342Q1219.4260210582056 343.1035699923318 1219.4260210582056 351.31628221262065L1219.4260210582056 351.31628221262065L1219.4260210582056 375.3644251795007Q1219.4260210582056 383.6715363908273 1217.1604452732981 389.2646766098171Q1214.8712697406313 394.8814165765664 1211.2133088379169 398.3269797494462Q1207.5789476829614 401.7489431745664 1203.0005966176282 403.2593270311713Q1198.4458453000539 404.74611114001675 1193.8674942347207 404.74611114001675L1193.8674942347207 404.74611114001675Q1189.8083376200948 404.74611114001675 1186.7875699068854 403.49532450876586Q1183.7668021936756 402.244537877515 1181.595625399806 400.2621590657211Q1179.4480483536963 398.27978025392724 1178.0792629836483 395.77820699142546Q1176.7104776135998 393.30023347668316 1175.9552856852974 390.7986602141814L1175.9552856852974 390.7986602141814L1175.9552856852974 419.18915676880044Q1175.9552856852974 422.82351792375584 1175.5776897211463 426.2454813488762Q1175.200093756995 429.64384502623705 1173.925707377985 432.2398172797766Q1172.627721251215 434.85938928107566 1170.055348745435 436.4877718764777Q1167.5065759874142 438.0925547241203 1163.1878221474349 438.0925547241203L1163.1878221474349 438.0925547241203Q1159.0342665417716 438.0925547241203 1156.5326932792696 436.4877718764777Q1154.0547197645274 434.85938928107566 1152.7567336377574 432.2398172797766Q1151.4823472587473 429.64384502623705 1151.104751294596 426.2454813488762Q1150.727155330445 422.82351792375584 1150.727155330445 419.18915676880044L1150.727155330445 419.18915676880044ZM1193.8674942347207 373.54724460202306L1193.8674942347207 353.4638592587306Q1193.8674942347207 351.22188322158286 1193.7022960004042 349.07430617547277Q1193.5370977660882 346.9267291293628 1192.8055055855452 345.18034779516347Q1192.050313657243 343.43396646096414 1190.6107290439163 342.3955775595483Q1189.1475446828304 341.3571886581325 1186.5751721770503 341.3571886581325L1186.5751721770503 341.3571886581325Q1183.3420067340057 341.3571886581325 1181.3124284266928 342.82037301921844Q1179.2828501193799 344.2599576325449 1178.126462479167 347.2807253457546Q1176.9464750911943 350.32509280672366 1176.4980798837646 354.9742431153354Q1176.0496846763353 359.5997936761878 1175.9552856852974 365.92452607572056L1175.9552856852974 365.92452607572056Q1175.9552856852974 368.567697824779 1176.4036808927272 371.94246175438036Q1176.8756758479162 375.2936259362224 1178.032063488129 378.2671941539131Q1179.188451128342 381.26436211936334 1181.265228931174 383.29394042667616Q1183.3420067340057 385.32351873398886 1186.5751721770503 385.32351873398886L1186.5751721770503 385.32351873398886Q1189.1475446828304 385.32351873398886 1190.6107290439163 384.28512983257303Q1192.050313657243 383.2467409311572 1192.8055055855452 381.59475858799567Q1193.5370977660882 379.94277624483414 1193.7022960004042 377.8187989464835Q1193.8674942347207 375.69482164813303 1193.8674942347207 373.54724460202306L1193.8674942347207 373.54724460202306Z " fill="#3c1a5b" transform="matrix(0.7175507135156587,0,0,0.7175507135156587,0,39.46265355689336)"/></g></svg>